<?xml version="1.0" encoding="UTF-8" standalone="no"?>
<!-- Created with Inkscape (http://www.inkscape.org/) -->

<svg
   xmlns:dc="http://purl.org/dc/elements/1.1/"
   xmlns:cc="http://creativecommons.org/ns#"
   xmlns:rdf="http://www.w3.org/1999/02/22-rdf-syntax-ns#"
   xmlns:svg="http://www.w3.org/2000/svg"
   xmlns="http://www.w3.org/2000/svg"
   xmlns:xlink="http://www.w3.org/1999/xlink"
   xmlns:sodipodi="http://sodipodi.sourceforge.net/DTD/sodipodi-0.dtd"
   xmlns:inkscape="http://www.inkscape.org/namespaces/inkscape"
   width="23.880304mm"
   height="42.167637mm"
   viewBox="0 0 23.880304 42.167637"
   version="1.1"
   id="svg8"
   inkscape:version="0.92.3 (d244b95, 2018-08-02)"
   sodipodi:docname="ogonDuch.svg">
  <defs
     id="defs2">
    <inkscape:path-effect
       overflow_perspective="false"
       vertical_mirror="false"
       horizontal_mirror="false"
       deform_type="envelope_deformation"
       is_visible="true"
       id="path-effect4691"
       down_right_point="64.408517,178.60856"
       down_left_point="51.752207,173.53044"
       up_right_point="75.366567,131.70193"
       up_left_point="52.955422,131.70193"
       effect="perspective-envelope" />
    <inkscape:path-effect
       overflow_perspective="false"
       vertical_mirror="false"
       horizontal_mirror="false"
       deform_type="envelope_deformation"
       is_visible="true"
       id="path-effect4685"
       down_right_point="73.767422,156.48566"
       down_left_point="51.355774,173.59091"
       up_right_point="74.970134,131.7624"
       up_left_point="52.558989,131.7624"
       effect="perspective-envelope" />
    <inkscape:path-effect
       effect="perspective-envelope"
       up_left_point="52.955422,131.70193"
       up_right_point="75.366567,131.70193"
       down_left_point="51.752207,173.53044"
       down_right_point="73.495681,180.34581"
       id="path-effect4679"
       is_visible="true"
       deform_type="envelope_deformation"
       horizontal_mirror="false"
       vertical_mirror="false"
       overflow_perspective="false" />
    <inkscape:path-effect
       overflow_perspective="false"
       vertical_mirror="false"
       horizontal_mirror="false"
       deform_type="envelope_deformation"
       is_visible="true"
       id="path-effect4673"
       down_right_point="75.767472,166.58143"
       down_left_point="51.752207,173.53044"
       up_right_point="75.366567,131.70193"
       up_left_point="52.955422,131.70193"
       effect="perspective-envelope" />
    <inkscape:path-effect
       effect="perspective-envelope"
       up_left_point="52.558989,131.7624"
       up_right_point="74.970134,131.7624"
       down_left_point="51.355774,173.59091"
       down_right_point="74.970134,173.59091"
       id="path-effect4669"
       is_visible="true"
       deform_type="envelope_deformation"
       horizontal_mirror="false"
       vertical_mirror="false"
       overflow_perspective="false" />
    <inkscape:path-effect
       effect="perspective-envelope"
       up_left_point="51.826785,131.69748"
       up_right_point="75.441145,131.69748"
       down_left_point="51.826785,173.52599"
       down_right_point="75.441145,173.52599"
       id="path-effect4667"
       is_visible="true"
       deform_type="envelope_deformation"
       horizontal_mirror="false"
       vertical_mirror="false"
       overflow_perspective="false" />
    <inkscape:path-effect
       effect="powerstroke"
       id="path-effect944"
       is_visible="true"
       offset_points="0,0.13229166"
       sort_points="true"
       interpolator_type="CubicBezierJohan"
       interpolator_beta="0.2"
       start_linecap_type="zerowidth"
       linejoin_type="extrp_arc"
       miter_limit="4"
       end_linecap_type="zerowidth" />
    <linearGradient
       inkscape:collect="always"
       id="linearGradient910">
      <stop
         style="stop-color:#00ff00;stop-opacity:0.595"
         offset="0"
         id="stop906" />
      <stop
         style="stop-color:#ffffff;stop-opacity:0"
         offset="1"
         id="stop908" />
    </linearGradient>
    <inkscape:path-effect
       effect="powerstroke"
       id="path-effect840"
       is_visible="true"
       offset_points="0,0.13229166"
       sort_points="true"
       interpolator_type="CubicBezierJohan"
       interpolator_beta="0.2"
       start_linecap_type="zerowidth"
       linejoin_type="extrp_arc"
       miter_limit="4"
       end_linecap_type="zerowidth" />
    <inkscape:path-effect
       effect="spiro"
       id="path-effect838"
       is_visible="true" />
    <inkscape:path-effect
       end_linecap_type="zerowidth"
       miter_limit="4"
       linejoin_type="extrp_arc"
       start_linecap_type="zerowidth"
       interpolator_beta="0.2"
       interpolator_type="CubicBezierJohan"
       sort_points="true"
       offset_points="0,0.13229166"
       is_visible="true"
       id="path-effect834"
       effect="powerstroke" />
    <inkscape:path-effect
       is_visible="true"
       id="path-effect832"
       effect="spiro" />
    <inkscape:path-effect
       effect="powerstroke"
       id="path-effect828"
       is_visible="true"
       offset_points="0,0.13229166"
       sort_points="true"
       interpolator_type="CubicBezierJohan"
       interpolator_beta="0.2"
       start_linecap_type="zerowidth"
       linejoin_type="extrp_arc"
       miter_limit="4"
       end_linecap_type="zerowidth" />
    <inkscape:path-effect
       effect="spiro"
       id="path-effect826"
       is_visible="true" />
    <linearGradient
       inkscape:collect="always"
       xlink:href="#linearGradient910"
       id="linearGradient916"
       x1="112.42476"
       y1="159.00694"
       x2="128.32442"
       y2="165.42142"
       gradientUnits="userSpaceOnUse" />
    <linearGradient
       inkscape:collect="always"
       xlink:href="#linearGradient910"
       id="linearGradient940"
       gradientUnits="userSpaceOnUse"
       x1="112.42476"
       y1="159.00694"
       x2="121.33186"
       y2="171.09106"
       gradientTransform="translate(-48.312256,-9.289511)" />
    <linearGradient
       inkscape:collect="always"
       xlink:href="#linearGradient910"
       id="linearGradient4675"
       gradientUnits="userSpaceOnUse"
       gradientTransform="translate(-47.915823,-9.349976)"
       x1="112.42476"
       y1="159.00694"
       x2="121.33186"
       y2="171.09106" />
    <linearGradient
       inkscape:collect="always"
       xlink:href="#linearGradient910"
       id="linearGradient4681"
       gradientUnits="userSpaceOnUse"
       gradientTransform="translate(-47.915823,-9.3499713)"
       x1="112.42476"
       y1="159.00694"
       x2="121.33186"
       y2="171.09106" />
    <linearGradient
       inkscape:collect="always"
       xlink:href="#linearGradient910"
       id="linearGradient4687"
       gradientUnits="userSpaceOnUse"
       gradientTransform="translate(-48.312256,-9.289512)"
       x1="112.42476"
       y1="159.00694"
       x2="121.33186"
       y2="171.09106" />
    <linearGradient
       inkscape:collect="always"
       xlink:href="#linearGradient910"
       id="linearGradient4693"
       gradientUnits="userSpaceOnUse"
       gradientTransform="translate(-47.915823,-9.349975)"
       x1="112.42476"
       y1="159.00694"
       x2="121.33186"
       y2="171.09106" />
  </defs>
  <sodipodi:namedview
     id="base"
     pagecolor="#ffffff"
     bordercolor="#666666"
     borderopacity="1.0"
     inkscape:pageopacity="0.0"
     inkscape:pageshadow="2"
     inkscape:zoom="1.4"
     inkscape:cx="-115.40603"
     inkscape:cy="123.3201"
     inkscape:document-units="mm"
     inkscape:current-layer="layer1"
     showgrid="false"
     inkscape:window-width="1301"
     inkscape:window-height="744"
     inkscape:window-x="65"
     inkscape:window-y="24"
     inkscape:window-maximized="1"
     fit-margin-top="0"
     fit-margin-left="0"
     fit-margin-right="0"
     fit-margin-bottom="0"
     showguides="true"
     inkscape:guide-bbox="true"
     inkscape:snap-global="true">
    <sodipodi:guide
       position="12.599252,42.165944"
       orientation="0,1"
       id="guide4695"
       inkscape:locked="false" />
    <sodipodi:guide
       position="0,41.211216"
       orientation="1,0"
       id="guide4697"
       inkscape:locked="false" />
  </sodipodi:namedview>
  <metadata
     id="metadata5">
    <rdf:RDF>
      <cc:Work
         rdf:about="">
        <dc:format>image/svg+xml</dc:format>
        <dc:type
           rdf:resource="http://purl.org/dc/dcmitype/StillImage" />
        <dc:title></dc:title>
      </cc:Work>
    </rdf:RDF>
  </metadata>
  <g
     inkscape:label="Layer 1"
     inkscape:groupmode="layer"
     id="layer1"
     transform="translate(-51.693147,-131.54669)">
    <path
       inkscape:connector-curvature="0"
       id="path869"
       d="m 51.595813,173.59089 c 2.419995,-1.72759 5.544429,-4.02009 9.178509,-6.65649 1.085896,-0.82859 2.462256,-1.87517 3.611779,-3.00422 1.048792,-1.05566 2.045411,-2.32176 2.674892,-3.78604 0.781627,-1.90026 0.884927,-3.9398 1.00107,-6.00396 0.0427,-1.01661 0.09626,-2.05065 0.242646,-3.0633 0.138392,-1.02477 0.371346,-2.0191 0.780907,-2.94735 0.542925,-1.26531 1.393501,-2.32979 2.178562,-3.25078 0.939604,-1.1033 1.687288,-1.90414 2.326513,-2.95539 0.810898,-1.32273 1.218572,-2.79374 1.340347,-4.15939 0.147572,-1.68393 -0.138624,-3.19866 -0.590542,-4.39907 0,0 -0.01161,0.12862 -0.01161,0.12862 -3.989054,-0.5801 -15.660162,-1.47401 -19.882169,-1.73112 0.777917,0.92544 1.516332,2.15754 1.978457,3.69461 0.408858,1.323 0.581529,2.869 0.286929,4.46299 -0.250356,1.24129 -0.712899,2.29309 -1.255856,3.64927 -0.467842,1.12293 -0.94708,2.36547 -1.04721,3.63602 -0.08201,0.93163 0.04054,1.84627 0.272438,2.75494 0.221495,0.90024 0.546227,1.78071 0.870407,2.6508 0.316402,0.87209 0.631873,1.75817 0.839404,2.66962 0.201463,0.92425 0.289021,1.86105 0.160349,2.8215 -0.21675,1.46605 -0.936115,2.87524 -1.664824,4.10972 -0.911493,1.48964 -1.680939,2.56008 -2.320444,3.88898 -1.315602,2.59467 -1.263432,5.7264 -0.970535,7.49006 0,0 -6.7e-5,-2e-5 -6.7e-5,-2e-5"
       style="fill:url(#linearGradient940);fill-opacity:1;stroke:none;stroke-width:0.26458332;stroke-opacity:1"
       inkscape:export-xdpi="96"
       inkscape:export-ydpi="96"
       inkscape:path-effect="#path-effect4669"
       inkscape:original-d="m 51.595812,173.59089 c 2.375805,-1.72759 5.456686,-4.02009 9.062462,-6.65649 1.08131,-0.82859 2.45508,-1.87517 3.60179,-3.00422 1.04871,-1.05566 2.04497,-2.32176 2.66922,-3.78604 0.77755,-1.90026 0.86465,-3.9398 0.96513,-6.00396 0.0348,-1.01661 0.0807,-2.05065 0.22234,-3.0633 0.13367,-1.02477 0.36541,-2.0191 0.78051,-2.94735 0.55152,-1.26531 1.42449,-2.32979 2.2326,-3.25078 0.96966,-1.1033 1.7434,-1.90414 2.40548,-2.95539 0.84244,-1.32273 1.26687,-2.79374 1.39391,-4.15939 0.15455,-1.68393 -0.14571,-3.19866 -0.6212,-4.39907 0,0 -0.0121,0.12862 -0.0121,0.12862 -4.19752,-0.5801 -16.49676,-1.47401 -20.951106,-1.73112 0.844367,0.92544 1.65305,2.15754 2.176904,3.69461 0.460867,1.323 0.678651,2.869 0.409455,4.46299 -0.230681,1.24129 -0.685936,2.29309 -1.21568,3.64927 -0.456196,1.12293 -0.919701,2.36547 -0.989297,3.63602 -0.05975,0.93163 0.09104,1.84627 0.353918,2.75494 0.251363,0.90024 0.607715,1.78071 0.962458,2.6508 0.346048,0.87209 0.690725,1.75817 0.924835,2.66962 0.22768,0.92425 0.338891,1.86105 0.23,2.8215 -0.186409,1.46605 -0.883947,2.87524 -1.592924,4.10972 -0.885202,1.48964 -1.634993,2.56008 -2.244444,3.88898 -1.251603,2.59467 -1.108096,5.7264 -0.764243,7.49006 0,0 -6.8e-5,-2e-5 -6.8e-5,-2e-5" />
    <circle
       style="fill:#00ff00;fill-opacity:1;stroke:#00ff00;stroke-width:0.26458332;stroke-opacity:1"
       id="path815"
       cx="113.01488"
       cy="128.04463"
       r="17.764881" />
    <path
       sodipodi:nodetypes="ccccc"
       inkscape:connector-curvature="0"
       id="circle817"
       d="m 104.92601,124.59348 c -2.59736,-1.98439 -5.055378,-1.24618 -7.474186,-0.28769 0.104849,-1.57334 1.34983,-3.10715 3.057496,-3.77846 2.16068,-0.84108 4.29746,-0.10914 4.77626,1.6231 0.21745,0.75435 0.0894,1.62066 -0.35957,2.44305 0,0 0,0 0,0"
       style="fill:#000000;fill-opacity:1;stroke:none;stroke-width:0.05527977;stroke-opacity:1" />
    <path
       style="fill:none;stroke:#000000;stroke-width:0.26458332px;stroke-linecap:butt;stroke-linejoin:miter;stroke-opacity:1"
       d="m 122.65321,139.3702 c 4.07984,5.1924 1.84426,0.85943 -0.80182,14.29891 -2.64607,13.43948 -6.15656,21.53441 -7.48354,25.92514 -1.32698,4.39073 -8.68626,20.71339 -8.68626,20.71339 0,0 -1.69752,-11.15942 -4.81085,-19.51067 -3.113332,-8.35125 7.29193,-11.35458 7.08264,-17.23889 -0.20928,-5.88431 -3.28011,-8.90147 -3.0736,-13.49711 0.20652,-4.59564 -7.149022,-11.28741 -3.0736,-13.22984 4.07542,-1.94243 16.76719,-2.65334 20.84703,2.53907 z"
       id="path954"
       inkscape:connector-curvature="0"
       sodipodi:nodetypes="zzzczzzzz" />
    <path
       inkscape:original-d="m 51.992245,173.53042 c 2.375805,-1.72759 5.456686,-4.02009 9.062462,-6.65649 1.08131,-0.82859 2.45508,-1.87517 3.60179,-3.00422 1.04871,-1.05566 2.04497,-2.32176 2.66922,-3.78604 0.77755,-1.90026 0.86465,-3.9398 0.96513,-6.00396 0.0348,-1.01661 0.0807,-2.05065 0.22234,-3.0633 0.13367,-1.02477 0.36541,-2.0191 0.78051,-2.94735 0.55152,-1.26531 1.42449,-2.32979 2.2326,-3.25078 0.96966,-1.1033 1.7434,-1.90414 2.40548,-2.95539 0.84244,-1.32273 1.26687,-2.79374 1.39391,-4.15939 0.15455,-1.68393 -0.14571,-3.19866 -0.6212,-4.39907 0,0 -0.0121,0.12862 -0.0121,0.12862 -4.19752,-0.5801 -16.49676,-1.47401 -20.951106,-1.73112 0.844367,0.92544 1.65305,2.15754 2.176904,3.69461 0.460867,1.323 0.678651,2.869 0.409455,4.46299 -0.230681,1.24129 -0.685936,2.29309 -1.21568,3.64927 -0.456196,1.12293 -0.919701,2.36547 -0.989297,3.63602 -0.05975,0.93163 0.09104,1.84627 0.353918,2.75494 0.251363,0.90024 0.607715,1.78071 0.962458,2.6508 0.346048,0.87209 0.690725,1.75817 0.924835,2.66962 0.22768,0.92425 0.338891,1.86105 0.23,2.8215 -0.186409,1.46605 -0.883947,2.87524 -1.592924,4.10972 -0.885202,1.48964 -1.634993,2.56008 -2.244444,3.88898 -1.251603,2.59467 -1.108096,5.7264 -0.764243,7.49006 0,0 -6.8e-5,-2e-5 -6.8e-5,-2e-5"
       inkscape:path-effect="#path-effect4673"
       inkscape:export-ydpi="96"
       inkscape:export-xdpi="96"
       style="fill:url(#linearGradient4675);fill-opacity:1;stroke:none;stroke-width:0.26458332;stroke-opacity:1"
       d="m 51.996321,173.45978 c 2.458495,-2.39492 5.627773,-5.46471 9.307232,-8.88767 1.09784,-1.03562 2.488355,-2.32755 3.647461,-3.62271 1.056506,-1.18937 2.058023,-2.54037 2.68581,-3.9753 0.777973,-1.83692 0.868602,-3.65682 0.971886,-5.49809 0.03617,-0.90356 0.08316,-1.82359 0.223826,-2.73709 0.132413,-0.92113 0.360175,-1.82548 0.766042,-2.68968 0.537296,-1.16776 1.385029,-2.18296 2.167303,-3.05563 0.935477,-1.03176 1.679939,-1.77676 2.312714,-2.71621 0.802012,-1.16871 1.19721,-2.42347 1.306298,-3.56922 0.131732,-1.40936 -0.169394,-2.66531 -0.633035,-3.66251 0,0 -0.01042,0.108 -0.01042,0.108 -3.996416,-0.45249 -15.675608,-1.20628 -19.898287,-1.45174 0.778982,0.90699 1.519521,2.10226 1.984704,3.58633 0.412034,1.26795 0.588188,2.75357 0.295831,4.30869 -0.248931,1.21658 -0.71155,2.26971 -1.254904,3.63278 -0.468706,1.13788 -0.949145,2.40126 -1.048453,3.65756 -0.08151,0.92297 0.04296,1.8044 0.277702,2.66368 0.224439,0.84922 0.553124,1.66117 0.881483,2.45883 0.320758,0.79659 0.640842,1.60271 0.852226,2.44736 0.205453,0.85511 0.295996,1.74016 0.168089,2.68734 -0.215972,1.45258 -0.940946,2.95898 -1.676434,4.31096 -0.921004,1.6545 -1.699469,2.88126 -2.346597,4.3423 -1.333306,2.90155 -1.279117,5.99828 -0.980456,7.66204 0,0 -6.9e-5,0 -6.9e-5,0"
       id="path4671"
       inkscape:connector-curvature="0" />
    <path
       inkscape:connector-curvature="0"
       id="path4677"
       d="m 51.973229,173.5997 c 2.240327,-1.07309 5.155491,-2.60325 8.577806,-4.46822 1.030158,-0.62554 2.340462,-1.43149 3.445261,-2.39762 1.012795,-0.92453 1.986556,-2.10735 2.623939,-3.60042 0.79868,-1.96238 0.961113,-4.21734 1.137265,-6.5001 0.07313,-1.12749 0.157392,-2.27334 0.330471,-3.38324 0.166295,-1.12641 0.423475,-2.209 0.85028,-3.20006 0.569189,-1.36099 1.433034,-2.4738 2.231104,-3.44218 0.958863,-1.17346 1.721581,-2.02907 2.390908,-3.18998 0.852362,-1.47378 1.318259,-3.15688 1.499237,-4.7382 0.221496,-1.95322 0.005,-3.72175 -0.392237,-5.12147 0,0 -0.01717,0.14885 -0.01717,0.14885 -3.954697,-0.70526 -15.588081,-1.73659 -19.80695,-2.00513 0.772951,0.94353 1.501448,2.21176 1.949304,3.80081 0.394039,1.37699 0.550453,2.9822 0.245386,4.61432 -0.257006,1.26552 -0.719193,2.31603 -1.260294,3.66545 -0.463817,1.10826 -0.937445,2.33037 -1.041412,3.61489 -0.08434,0.94012 0.02927,1.88733 0.24787,2.84444 0.207757,0.95029 0.514041,1.89796 0.818722,2.83908 0.296075,0.94614 0.590019,1.91064 0.779564,2.88761 0.18285,0.99206 0.256474,1.97961 0.124229,2.95308 -0.220377,1.47926 -0.913569,2.79311 -1.610642,3.91234 -0.86711,1.32796 -1.594469,2.24508 -2.198396,3.44438 -1.232983,2.2937 -1.190236,5.45976 -0.924234,7.32139 0,0 -6.2e-5,-4e-5 -6.2e-5,-4e-5"
       style="fill:url(#linearGradient4681);fill-opacity:1;stroke:none;stroke-width:0.26458332;stroke-opacity:1"
       inkscape:export-xdpi="96"
       inkscape:export-ydpi="96"
       inkscape:path-effect="#path-effect4679"
       inkscape:original-d="m 51.992245,173.53042 c 2.375805,-1.72759 5.456686,-4.02009 9.062462,-6.65649 1.08131,-0.82859 2.45508,-1.87517 3.60179,-3.00422 1.04871,-1.05566 2.04497,-2.32176 2.66922,-3.78604 0.77755,-1.90026 0.86465,-3.9398 0.96513,-6.00396 0.0348,-1.01661 0.0807,-2.05065 0.22234,-3.0633 0.13367,-1.02477 0.36541,-2.0191 0.78051,-2.94735 0.55152,-1.26531 1.42449,-2.32979 2.2326,-3.25078 0.96966,-1.1033 1.7434,-1.90414 2.40548,-2.95539 0.84244,-1.32273 1.26687,-2.79374 1.39391,-4.15939 0.15455,-1.68393 -0.14571,-3.19866 -0.6212,-4.39907 0,0 -0.0121,0.12862 -0.0121,0.12862 -4.19752,-0.5801 -16.49676,-1.47401 -20.951106,-1.73112 0.844367,0.92544 1.65305,2.15754 2.176904,3.69461 0.460867,1.323 0.678651,2.869 0.409455,4.46299 -0.230681,1.24129 -0.685936,2.29309 -1.21568,3.64927 -0.456196,1.12293 -0.919701,2.36547 -0.989297,3.63602 -0.05975,0.93163 0.09104,1.84627 0.353918,2.75494 0.251363,0.90024 0.607715,1.78071 0.962458,2.6508 0.346048,0.87209 0.690725,1.75817 0.924835,2.66962 0.22768,0.92425 0.338891,1.86105 0.23,2.8215 -0.186409,1.46605 -0.883947,2.87524 -1.592924,4.10972 -0.885202,1.48964 -1.634993,2.56008 -2.244444,3.88898 -1.251603,2.59467 -1.108096,5.7264 -0.764243,7.49006 0,0 -6.8e-5,-2e-5 -6.8e-5,-2e-5" />
    <path
       inkscape:original-d="m 51.595812,173.59089 c 2.375805,-1.72759 5.456686,-4.02009 9.062462,-6.65649 1.08131,-0.82859 2.45508,-1.87517 3.60179,-3.00422 1.04871,-1.05566 2.04497,-2.32176 2.66922,-3.78604 0.77755,-1.90026 0.86465,-3.9398 0.96513,-6.00396 0.0348,-1.01661 0.0807,-2.05065 0.22234,-3.0633 0.13367,-1.02477 0.36541,-2.0191 0.78051,-2.94735 0.55152,-1.26531 1.42449,-2.32979 2.2326,-3.25078 0.96966,-1.1033 1.7434,-1.90414 2.40548,-2.95539 0.84244,-1.32273 1.26687,-2.79374 1.39391,-4.15939 0.15455,-1.68393 -0.14571,-3.19866 -0.6212,-4.39907 0,0 -0.0121,0.12862 -0.0121,0.12862 -4.19752,-0.5801 -16.49676,-1.47401 -20.951106,-1.73112 0.844367,0.92544 1.65305,2.15754 2.176904,3.69461 0.460867,1.323 0.678651,2.869 0.409455,4.46299 -0.230681,1.24129 -0.685936,2.29309 -1.21568,3.64927 -0.456196,1.12293 -0.919701,2.36547 -0.989297,3.63602 -0.05975,0.93163 0.09104,1.84627 0.353918,2.75494 0.251363,0.90024 0.607715,1.78071 0.962458,2.6508 0.346048,0.87209 0.690725,1.75817 0.924835,2.66962 0.22768,0.92425 0.338891,1.86105 0.23,2.8215 -0.186409,1.46605 -0.883947,2.87524 -1.592924,4.10972 -0.885202,1.48964 -1.634993,2.56008 -2.244444,3.88898 -1.251603,2.59467 -1.108096,5.7264 -0.764243,7.49006 0,0 -6.8e-5,-2e-5 -6.8e-5,-2e-5"
       inkscape:path-effect="#path-effect4685"
       inkscape:export-ydpi="96"
       inkscape:export-xdpi="96"
       style="fill:url(#linearGradient4687);fill-opacity:1;stroke:none;stroke-width:0.26458332;stroke-opacity:1"
       d="m 51.583588,173.41702 c 2.304494,-3.37027 5.294397,-7.5761 8.792343,-12.14863 1.050064,-1.33821 2.38396,-2.98872 3.504731,-4.52667 1.025652,-1.38478 2.007576,-2.85987 2.642137,-4.2519 0.792589,-1.74435 0.933904,-3.24324 1.088624,-4.75875 0.06226,-0.73832 0.13556,-1.49174 0.299105,-2.26032 0.156329,-0.76966 0.404857,-1.54249 0.825504,-2.31309 0.559809,-1.02518 1.418915,-1.96834 2.212339,-2.7704 0.951985,-0.92721 1.709333,-1.5906 2.36791,-2.36663 0.837553,-0.94362 1.282656,-1.88232 1.44249,-2.70668 0.195095,-1.00805 -0.04631,-1.8858 -0.46306,-2.586 0,0 -0.01518,0.0779 -0.01518,0.0779 -3.966967,-0.26598 -15.613824,-0.81499 -19.833814,-1.04341 0.774725,0.88003 1.506764,2.02146 1.959715,3.42807 0.399332,1.18751 0.561553,2.58488 0.260224,4.08317 -0.254632,1.18048 -0.716946,2.23554 -1.25871,3.60868 -0.465254,1.15975 -0.940886,2.45357 -1.043482,3.68904 -0.0835,0.91033 0.03329,1.74322 0.256644,2.53032 0.212663,0.77463 0.525536,1.48644 0.837181,2.17825 0.303335,0.68624 0.604967,1.3755 0.800935,2.12251 0.189498,0.75407 0.268099,1.56348 0.137129,2.49126 -0.219081,1.43289 -0.921621,3.08138 -1.629992,4.6051 -0.882961,1.89544 -1.625351,3.35067 -2.241985,5.00484 -1.262489,3.35005 -1.216377,6.39563 -0.94077,7.91338 0,0 -6.4e-5,3e-5 -6.4e-5,3e-5"
       id="path4683"
       inkscape:connector-curvature="0" />
    <path
       inkscape:original-d="m 51.992245,173.53042 c 2.375805,-1.72759 5.456686,-4.02009 9.062462,-6.65649 1.08131,-0.82859 2.45508,-1.87517 3.60179,-3.00422 1.04871,-1.05566 2.04497,-2.32176 2.66922,-3.78604 0.77755,-1.90026 0.86465,-3.9398 0.96513,-6.00396 0.0348,-1.01661 0.0807,-2.05065 0.22234,-3.0633 0.13367,-1.02477 0.36541,-2.0191 0.78051,-2.94735 0.55152,-1.26531 1.42449,-2.32979 2.2326,-3.25078 0.96966,-1.1033 1.7434,-1.90414 2.40548,-2.95539 0.84244,-1.32273 1.26687,-2.79374 1.39391,-4.15939 0.15455,-1.68393 -0.14571,-3.19866 -0.6212,-4.39907 0,0 -0.0121,0.12862 -0.0121,0.12862 -4.19752,-0.5801 -16.49676,-1.47401 -20.951106,-1.73112 0.844367,0.92544 1.65305,2.15754 2.176904,3.69461 0.460867,1.323 0.678651,2.869 0.409455,4.46299 -0.230681,1.24129 -0.685936,2.29309 -1.21568,3.64927 -0.456196,1.12293 -0.919701,2.36547 -0.989297,3.63602 -0.05975,0.93163 0.09104,1.84627 0.353918,2.75494 0.251363,0.90024 0.607715,1.78071 0.962458,2.6508 0.346048,0.87209 0.690725,1.75817 0.924835,2.66962 0.22768,0.92425 0.338891,1.86105 0.23,2.8215 -0.186409,1.46605 -0.883947,2.87524 -1.592924,4.10972 -0.885202,1.48964 -1.634993,2.56008 -2.244444,3.88898 -1.251603,2.59467 -1.108096,5.7264 -0.764243,7.49006 0,0 -6.8e-5,-2e-5 -6.8e-5,-2e-5"
       inkscape:path-effect="#path-effect4691"
       inkscape:export-ydpi="96"
       inkscape:export-xdpi="96"
       style="fill:url(#linearGradient4693);fill-opacity:1;stroke:none;stroke-width:0.26458332;stroke-opacity:1"
       d="m 51.880858,173.58204 c 1.367657,-1.23992 3.266365,-2.9644 5.660108,-5.02601 0.759425,-0.6773 1.748888,-1.54459 2.636459,-2.55225 0.837952,-0.95795 1.700684,-2.162 2.376455,-3.64774 0.881506,-1.94654 1.331155,-4.14658 1.798781,-6.37363 0.220974,-1.09922 0.454313,-2.21657 0.757053,-3.30168 0.301821,-1.10051 0.676675,-2.16059 1.187231,-3.13565 0.696757,-1.33659 1.625052,-2.43709 2.486306,-3.39339 1.052409,-1.15557 1.888146,-1.99722 2.703686,-3.13018 1.053764,-1.43527 1.802451,-3.06432 2.270991,-4.59066 0.580554,-1.88458 0.702427,-3.58842 0.570956,-4.93733 0,0 -0.04413,0.14369 -0.04413,0.14369 -3.787821,-0.67335 -15.237977,-1.66965 -19.441605,-1.93528 0.748827,0.93892 1.429156,2.19794 1.807703,3.77374 0.322059,1.36322 0.399516,2.95335 0.04361,4.57575 -0.28931,1.25934 -0.749768,2.31017 -1.281856,3.66132 -0.444259,1.112 -0.890646,2.33931 -1.013247,3.62028 -0.09565,0.93795 -0.02547,1.87686 0.128539,2.82162 0.14103,0.93753 0.357713,1.86807 0.56768,2.79109 0.197346,0.92726 0.386729,1.87177 0.488914,2.83204 0.09244,0.97478 0.09839,1.94939 -0.05121,2.91954 -0.237994,1.4759 -0.804058,2.81405 -1.347474,3.96266 -0.651528,1.36917 -1.174465,2.32537 -1.605591,3.55771 -0.831688,2.37041 -0.834712,5.52772 -0.699346,7.36438 0,0 -3.6e-5,-3e-5 -3.6e-5,-3e-5"
       id="path4689"
       inkscape:connector-curvature="0" />
  </g>
</svg>
